<svg width="50" height="50" viewBox="0 0 284 284" fill="none" xmlns="http://www.w3.org/2000/svg">
<g clip-path="url(#clip0_19_34)">
<rect width="200" height="200" transform="translate(0.578613 142) rotate(-45)" fill="white"/>
<path d="M130.266 187.586V94.4949H97.7209C91.236 94.4949 85.8875 95.6161 81.6754 97.8585C77.4633 100.071 74.3269 103.056 72.2663 106.813C70.2057 110.54 69.1754 114.677 69.1754 119.222C69.1754 123.222 69.8876 126.525 71.3118 129.131C72.7057 131.737 74.5542 133.798 76.8572 135.313C79.13 136.828 81.5997 137.949 84.2663 138.677V139.586C81.4179 139.768 78.5542 140.768 75.6754 142.586C72.7966 144.404 70.3875 147.01 68.4482 150.404C66.5088 153.798 65.5391 157.949 65.5391 162.859C65.5391 167.525 66.5997 171.722 68.7209 175.449C70.8421 179.177 74.1906 182.131 78.7663 184.313C83.3421 186.495 89.2966 187.586 96.63 187.586H130.266ZM118.994 177.586H96.63C89.2663 177.586 84.0391 176.162 80.9482 173.313C77.8269 170.434 76.2663 166.949 76.2663 162.859C76.2663 159.707 77.0694 156.798 78.6754 154.131C80.2815 151.434 82.5694 149.283 85.5391 147.677C88.5088 146.04 92.0239 145.222 96.0845 145.222H118.994V177.586ZM118.994 135.404H98.0845C94.6906 135.404 91.63 134.737 88.9027 133.404C86.1451 132.071 83.9633 130.192 82.3572 127.768C80.7209 125.343 79.9027 122.495 79.9027 119.222C79.9027 115.131 81.3269 111.662 84.1754 108.813C87.0239 105.934 91.5391 104.495 97.7209 104.495H118.994V135.404Z" fill="black"/>
<path d="M120.749 94.4948H134.204L165.84 171.768H166.931L198.567 94.4948H212.022V187.586H201.477V116.858H200.567L171.477 187.586H161.295L132.204 116.858H131.295V187.586H120.749V94.4948Z" fill="black"/>
</g>
<defs>
<clipPath id="clip0_19_34">
<rect width="200" height="200" fill="white" transform="translate(0.578613 142) rotate(-45)"/>
</clipPath>
</defs>
</svg>
